<svg width="25" height="25" viewBox="0 0 25 25" fill="none" xmlns="http://www.w3.org/2000/svg">
<path d="M12.9668 2.25C7.4668 2.25 2.9668 6.75 2.9668 12.25C2.9668 17.75 7.4668 22.25 12.9668 22.25C18.4668 22.25 22.9668 17.75 22.9668 12.25C22.9668 6.75 18.4668 2.25 12.9668 2.25Z" fill="#7CB342"/>
<path d="M23.4668 12.25C23.4668 18.1 18.7168 22.75 12.9668 22.75C7.2168 22.75 2.4668 18.1 2.4668 12.25C2.4668 6.4 7.1168 1.75 12.9668 1.75C18.8168 1.75 23.4668 6.4 23.4668 12.25ZM12.8668 17.1C12.8668 16.9 12.7668 16.8 12.5668 16.7C11.9168 16.5 11.3168 16.5 10.7668 15.95C10.6668 15.75 10.6668 15.55 10.5668 15.3C10.3668 15.1 9.8168 15 9.5168 14.9H7.4168C7.1168 14.8 6.8668 14.35 6.6668 14.05C6.6668 13.95 6.6668 13.75 6.4668 13.75C6.2668 13.65 6.0668 13.85 5.8168 13.75C5.7168 13.65 5.7168 13.55 5.7168 13.45C5.7168 13.15 5.9168 12.8 6.1168 12.6C6.4168 12.4 6.7668 12.7 7.0668 12.7C7.1668 12.7 7.1668 12.7 7.2668 12.8C7.5668 12.9 7.6668 13.3 7.6668 13.65V13.85C7.6668 13.95 7.7668 13.95 7.8668 13.95C7.9668 13.4 7.9668 12.9 8.0668 12.35C8.0668 11.7 8.7168 11.1 9.2168 10.9C9.4168 10.8 9.5168 11 9.7668 10.9C10.4168 10.7 11.9668 10.05 11.6668 9.2C11.4668 8.45 10.8168 7.75 9.9668 7.85C9.7668 7.95 9.6668 8.05 9.4668 8.15C9.1668 8.35 8.5168 9 8.2168 9C7.6668 8.9 7.6668 8.15 7.8168 7.85C7.9168 7.45 8.8668 6.05 9.5168 6.3L9.9168 6.7C10.1168 6.8 10.4668 6.8 10.7668 6.8C10.8668 6.8 10.9668 6.8 11.0668 6.7C11.1668 6.6 11.1668 6.6 11.1668 6.5C11.1668 6.2 10.8668 5.85 10.6668 5.65C10.4668 5.45 10.1168 5.25 9.8168 5.1C8.7668 4.8 7.0668 5.2 6.2668 5.95C5.4668 6.7 4.8168 7.95 4.3668 9C4.1668 9.65 3.9668 10.45 3.8668 11.2C3.7668 11.7 3.6668 12.15 3.9668 12.65C4.2668 13.3 4.9168 13.9 5.5668 14.35C5.9668 14.65 6.8168 14.65 7.2668 15.2C7.5668 15.6 7.4668 16.15 7.4668 16.65C7.4668 17.3 7.8668 17.8 8.1168 18.35C8.2168 18.65 8.3168 19.1 8.4168 19.4C8.4168 19.5 8.5168 20.15 8.5168 20.25C9.1668 20.55 9.6668 20.9 10.4168 21.1C10.5168 21.1 10.9168 20.45 10.9168 20.35C11.2168 20.05 11.4668 19.6 11.7668 19.4C11.9668 19.3 12.1668 19.2 12.4168 19C12.6168 18.8 12.7168 18.35 12.8168 18.05C12.8668 17.8 12.9668 17.4 12.8668 17.1ZM13.0668 7.4C13.1668 7.4 13.2668 7.3 13.4668 7.2C13.7668 7 14.1168 6.65 14.4168 6.45C14.7168 6.25 15.0668 5.9 15.2668 5.7C15.5668 5.5 15.8168 5.05 15.9168 4.75C16.0168 4.55 16.3168 4.1 16.2168 3.8C16.1168 3.6 15.5668 3.5 15.3668 3.4C14.5168 3.2 13.8168 3.1 12.9668 3.1C12.6668 3.1 12.2168 3.2 12.1168 3.5C12.0168 4.05 12.4168 3.9 12.8668 4.05C12.8668 4.05 12.9668 4.9 12.9668 5C13.0668 5.5 12.7668 5.85 12.7668 6.35C12.7668 6.65 12.7668 7.2 12.9668 7.4H13.0668ZM21.8668 14.75C21.9668 14.55 21.9668 14.2 22.0668 14C22.1668 13.5 22.1668 12.95 22.1668 12.45C22.1668 11.4 22.0668 10.35 21.7668 9.4C21.5668 9.1 21.4668 8.75 21.3668 8.45C21.1668 7.9 20.8668 7.4 20.4168 7C20.0168 6.45 19.4668 5 18.5168 5.45C18.2168 5.55 18.0168 5.95 17.7668 6.2C17.5668 6.5 17.3668 6.85 17.1168 7.15C17.0168 7.25 16.9168 7.45 17.0168 7.55C17.0168 7.65 17.1168 7.65 17.2168 7.65C17.4168 7.75 17.5168 7.75 17.7168 7.85C17.8168 7.85 17.9168 7.95 17.8168 8.05C17.8168 8.05 17.8168 8.15 17.7168 8.15C17.2168 8.7 16.6668 9.1 16.1668 9.6C16.0668 9.7 15.9668 9.9 15.9668 10C15.9668 10.1 16.0668 10.1 16.0668 10.2C16.0668 10.3 15.9668 10.3 15.8668 10.4C15.6668 10.5 15.4668 10.6 15.3168 10.7C15.2168 10.9 15.3168 11.25 15.2168 11.45C15.1168 12 14.8168 12.4 14.5668 12.9C14.3668 13.2 14.2668 13.55 14.0668 13.85C14.0668 14.25 13.9668 14.6 14.1668 14.9C14.6668 15.65 15.6168 15.2 16.3668 15.55C16.5668 15.65 16.7668 15.65 16.9168 15.85C17.2168 16.15 17.2168 16.7 17.3168 17C17.4168 17.4 17.5168 17.85 17.7168 18.25C17.8168 18.75 18.0168 19.3 18.1168 19.7C19.0668 18.95 19.9168 18.15 20.5168 17.1C21.2668 16.45 21.5668 15.6 21.8668 14.75Z" fill="#0277BD"/>
</svg>
