<svg width="74" height="17" viewBox="0 0 74 17" fill="none" xmlns="http://www.w3.org/2000/svg">
<path d="M68.914 12.9677C68.6462 12.9677 68.4217 12.946 68.2407 12.9025C68.067 12.8663 67.9548 12.841 67.9041 12.8265V11.8058H68.5665C68.7475 11.8058 68.9104 11.7623 69.0552 11.6755C69.2 11.5958 69.3267 11.4872 69.4353 11.3497C69.5438 11.2194 69.6235 11.0782 69.6741 10.9262L67.4372 5.21429H69.0335L70.0108 7.85305C70.0542 7.97612 70.1013 8.13177 70.152 8.31999C70.2099 8.50098 70.2678 8.69283 70.3257 8.89553C70.3836 9.09099 70.4307 9.26474 70.4669 9.41677H70.5212C70.5501 9.31541 70.5827 9.19596 70.6189 9.05842C70.6551 8.92087 70.6913 8.7797 70.7275 8.63491C70.7709 8.49012 70.8107 8.35257 70.8469 8.22226C70.8904 8.08471 70.9266 7.96526 70.9555 7.86391L71.77 5.21429H73.2902L71.3465 10.6547C71.2379 10.9732 71.1112 11.2701 70.9664 11.5452C70.8288 11.8275 70.666 12.0736 70.4777 12.2836C70.2895 12.5008 70.0651 12.6673 69.8045 12.7831C69.5511 12.9062 69.2543 12.9677 68.914 12.9677Z" fill="#401A6D"/>
<path d="M63.8419 11.0565C63.6537 11.0565 63.451 11.0348 63.2338 10.9913C63.0239 10.9479 62.8248 10.8719 62.6366 10.7633C62.4484 10.6474 62.2927 10.4846 62.1696 10.2746C62.0538 10.0574 61.9959 9.78234 61.9959 9.44932C61.9959 9.05115 62.0828 8.72176 62.2565 8.46114C62.4303 8.20052 62.6764 7.99782 62.9949 7.85303C63.3207 7.701 63.708 7.59603 64.1569 7.53812C64.6057 7.4802 65.1016 7.45124 65.6446 7.45124V7.02774C65.6446 6.86123 65.6156 6.71644 65.5577 6.59337C65.507 6.4703 65.4129 6.37257 65.2754 6.30018C65.145 6.22778 64.9604 6.19158 64.7215 6.19158C64.4826 6.19158 64.2872 6.22054 64.1351 6.27846C63.9904 6.33637 63.8854 6.41239 63.8202 6.5065C63.7623 6.59337 63.7334 6.6911 63.7334 6.7997V6.93001H62.2674C62.2601 6.89381 62.2565 6.86123 62.2565 6.83227C62.2565 6.79608 62.2565 6.75264 62.2565 6.70196C62.2565 6.36895 62.3579 6.08299 62.5606 5.84409C62.7633 5.59795 63.0492 5.40973 63.4184 5.27942C63.7877 5.14911 64.2184 5.08395 64.7107 5.08395C65.2392 5.08395 65.6808 5.15273 66.0355 5.29028C66.3975 5.42783 66.6726 5.63053 66.8608 5.89839C67.0563 6.16625 67.154 6.50288 67.154 6.90829V9.50362C67.154 9.63393 67.1902 9.73166 67.2626 9.79681C67.3422 9.85473 67.4291 9.88369 67.5232 9.88369H67.8815V10.8719C67.8092 10.9081 67.6969 10.9443 67.5449 10.9805C67.3929 11.0239 67.2083 11.0456 66.9911 11.0456C66.7811 11.0456 66.5929 11.013 66.4264 10.9479C66.2672 10.89 66.1332 10.8067 66.0246 10.6981C65.916 10.5823 65.84 10.4447 65.7966 10.2855H65.7206C65.5975 10.4375 65.4455 10.5714 65.2645 10.6873C65.0907 10.8031 64.8844 10.8936 64.6455 10.9587C64.4139 11.0239 64.146 11.0565 63.8419 11.0565ZM64.3523 9.91626C64.555 9.91626 64.736 9.88731 64.8953 9.82939C65.0546 9.76424 65.1885 9.68098 65.2971 9.57963C65.4057 9.47104 65.4889 9.34073 65.5468 9.1887C65.612 9.03668 65.6446 8.87379 65.6446 8.70004V8.38513C65.2392 8.38513 64.8772 8.41409 64.5586 8.472C64.2401 8.52268 63.9867 8.61317 63.7985 8.74348C63.6175 8.87379 63.527 9.05477 63.527 9.28644C63.527 9.41674 63.5596 9.52895 63.6248 9.62307C63.6899 9.71718 63.784 9.78957 63.9071 9.84025C64.0302 9.89093 64.1786 9.91626 64.3523 9.91626Z" fill="#401A6D"/>
<path d="M56.9475 10.9261V3.0641H58.4569V7.59235L60.455 5.2142H62.225L60.2704 7.45118L62.3228 10.9261H60.5962L59.2822 8.51537L58.4569 9.31895V10.9261H56.9475Z" fill="#401A6D"/>
<path d="M50.8805 10.9262V10.5352C50.8805 10.2095 50.9384 9.91265 51.0543 9.64479C51.1701 9.37693 51.3294 9.13079 51.5321 8.90637C51.7348 8.68195 51.9592 8.46839 52.2053 8.26568C52.4515 8.06298 52.7048 7.86751 52.9655 7.67929C53.2623 7.45487 53.541 7.23407 53.8016 7.01688C54.0695 6.7997 54.2867 6.56804 54.4532 6.3219C54.6197 6.06852 54.7029 5.7898 54.7029 5.48575C54.7029 5.34096 54.6667 5.19617 54.5943 5.05138C54.5219 4.90659 54.4061 4.78714 54.2468 4.69303C54.0948 4.59168 53.8885 4.541 53.6279 4.541C53.36 4.541 53.1392 4.58806 52.9655 4.68217C52.7917 4.76904 52.6578 4.89573 52.5637 5.06224C52.4768 5.22151 52.4334 5.42059 52.4334 5.65949V6.05042H50.9782C50.971 6.01422 50.9638 5.96355 50.9565 5.89839C50.9493 5.83324 50.9457 5.7536 50.9457 5.65949C50.9457 5.13101 51.0651 4.69665 51.304 4.3564C51.5502 4.01615 51.8796 3.76277 52.2922 3.59626C52.7121 3.42975 53.1863 3.3465 53.7147 3.3465C54.1925 3.3465 54.5907 3.41527 54.9092 3.55282C55.235 3.68313 55.4956 3.8605 55.6911 4.08492C55.8866 4.3021 56.0241 4.541 56.1038 4.80162C56.1906 5.055 56.2341 5.30114 56.2341 5.54004C56.2341 5.88029 56.1725 6.19159 56.0495 6.47393C55.9264 6.75626 55.7599 7.0205 55.5499 7.26664C55.34 7.51278 55.0902 7.75168 54.8007 7.98334C54.5111 8.20777 54.2034 8.43219 53.8776 8.65661C53.7111 8.77244 53.5519 8.88465 53.3998 8.99324C53.255 9.10183 53.1283 9.20681 53.0198 9.30816C52.9184 9.40227 52.8388 9.49638 52.7809 9.59049H56.2884V10.9262H50.8805Z" fill="#401A6D"/>
<path d="M49.5579 11.0565C49.1959 11.0565 48.9027 10.9913 48.6783 10.861C48.4539 10.7307 48.291 10.557 48.1897 10.3398C48.0883 10.1154 48.0376 9.86923 48.0376 9.60137V6.37622H47.3318V5.21429H48.0919L48.3743 3.58542H49.547V5.21429H50.5895V6.37622H49.547V9.35162C49.547 9.52536 49.5869 9.65929 49.6665 9.7534C49.7461 9.84028 49.8764 9.88371 50.0574 9.88371H50.5895V10.8828C50.5026 10.9117 50.4013 10.937 50.2855 10.9588C50.1696 10.9877 50.0466 11.0094 49.9163 11.0239C49.7859 11.0456 49.6665 11.0565 49.5579 11.0565Z" fill="#401A6D"/>
<path d="M41.8635 10.9262V5.21426H43.1123L43.2318 5.99612H43.3078C43.4381 5.8079 43.5937 5.64501 43.7747 5.50746C43.9629 5.36991 44.1729 5.26494 44.4045 5.19255C44.6362 5.12015 44.8896 5.08395 45.1647 5.08395C45.5411 5.08395 45.8705 5.15273 46.1529 5.29028C46.4352 5.42783 46.6524 5.64501 46.8044 5.94182C46.9637 6.23864 47.0433 6.62595 47.0433 7.10375V10.9262H45.5339V7.34265C45.5339 7.16167 45.5122 7.00964 45.4687 6.88657C45.4253 6.75626 45.3602 6.65129 45.2733 6.57165C45.1936 6.48478 45.0923 6.42325 44.9692 6.38705C44.8462 6.35085 44.7086 6.33275 44.5566 6.33275C44.3322 6.33275 44.1295 6.38705 43.9485 6.49564C43.7675 6.60423 43.6263 6.75264 43.525 6.94086C43.4236 7.12909 43.3729 7.34627 43.3729 7.59241V10.9262H41.8635Z" fill="#401A6D"/>
<path d="M38.6602 11.0565C38.0304 11.0565 37.5019 10.9515 37.0748 10.7416C36.6477 10.5244 36.3255 10.195 36.1083 9.75338C35.8912 9.31177 35.7826 8.75072 35.7826 8.07021C35.7826 7.38247 35.8912 6.82141 36.1083 6.38705C36.3255 5.94544 36.6441 5.61967 37.0639 5.40973C37.4911 5.19254 38.0123 5.08395 38.6277 5.08395C39.2068 5.08395 39.6955 5.18893 40.0936 5.39887C40.4918 5.60157 40.7922 5.92011 40.9949 6.35447C41.1976 6.7816 41.299 7.33541 41.299 8.01592V8.40685H37.3137C37.3282 8.73986 37.3789 9.0222 37.4657 9.25386C37.5598 9.48552 37.701 9.65926 37.8892 9.77509C38.0847 9.88369 38.3417 9.93798 38.6602 9.93798C38.834 9.93798 38.9896 9.91626 39.1272 9.87283C39.272 9.82939 39.395 9.76424 39.4964 9.67736C39.5977 9.59049 39.6774 9.4819 39.7353 9.35159C39.7932 9.22128 39.8222 9.07287 39.8222 8.90637H41.299C41.299 9.26834 41.2338 9.58325 41.1035 9.85111C40.9732 10.119 40.7922 10.3434 40.5606 10.5244C40.3289 10.6981 40.0502 10.8321 39.7244 10.9262C39.4059 11.013 39.0512 11.0565 38.6602 11.0565ZM37.3354 7.45124H39.7461C39.7461 7.23406 39.7172 7.04584 39.6593 6.88657C39.6086 6.7273 39.5362 6.59699 39.4421 6.49564C39.348 6.39429 39.2321 6.32189 39.0946 6.27846C38.9643 6.22778 38.8159 6.20244 38.6494 6.20244C38.3743 6.20244 38.1426 6.2495 37.9544 6.34361C37.7734 6.43049 37.6322 6.56803 37.5309 6.75626C37.4368 6.93724 37.3716 7.16891 37.3354 7.45124Z" fill="#401A6D"/>
<path d="M30.9457 12.9677C30.6923 12.9677 30.4534 12.9134 30.229 12.8048C30.0046 12.7035 29.8236 12.5514 29.686 12.3487C29.5485 12.146 29.4797 11.9035 29.4797 11.6212C29.4797 11.3026 29.5702 11.0493 29.7512 10.861C29.9394 10.6656 30.1494 10.5208 30.381 10.4267C30.2145 10.3326 30.077 10.2095 29.9684 10.0575C29.867 9.90543 29.8163 9.72806 29.8163 9.52536C29.8163 9.24302 29.9177 9.01498 30.1204 8.84123C30.3303 8.66025 30.5692 8.54442 30.8371 8.49374C30.5692 8.32723 30.3593 8.11729 30.2073 7.86391C30.0625 7.60329 29.9901 7.31372 29.9901 6.99518C29.9901 6.58253 30.0914 6.23504 30.2941 5.95271C30.5041 5.67037 30.8009 5.45681 31.1846 5.31202C31.5755 5.15999 32.0352 5.08398 32.5637 5.08398C32.7736 5.08398 32.9691 5.09484 33.1501 5.11655C33.3383 5.13827 33.5084 5.17447 33.6605 5.22514C33.9283 5.06588 34.1093 4.89213 34.2034 4.70391C34.3048 4.50844 34.3591 4.3528 34.3663 4.23696H35.7671C35.7671 4.50482 35.7165 4.73648 35.6151 4.93195C35.521 5.12741 35.3835 5.2903 35.2025 5.42061C35.0215 5.54368 34.8043 5.63417 34.5509 5.69209C34.7391 5.85135 34.8839 6.0432 34.9853 6.26762C35.0866 6.49204 35.1373 6.73456 35.1373 6.99518C35.1373 7.40059 35.0396 7.74808 34.8441 8.03766C34.6487 8.31999 34.3699 8.53718 34.008 8.6892C33.6532 8.84123 33.2261 8.91725 32.7266 8.91725H31.8579C31.6841 8.91725 31.5538 8.94982 31.4669 9.01498C31.3801 9.07289 31.3366 9.15977 31.3366 9.2756C31.3366 9.36971 31.3728 9.45296 31.4452 9.52536C31.5248 9.59051 31.6515 9.62309 31.8253 9.62309H34.2034C34.6812 9.62309 35.0613 9.7715 35.3436 10.0683C35.6332 10.3579 35.778 10.7307 35.778 11.1868C35.778 11.5343 35.6875 11.842 35.5065 12.1098C35.3255 12.3777 35.0758 12.5876 34.7572 12.7397C34.4387 12.8917 34.0731 12.9677 33.6605 12.9677H30.9457ZM31.5755 11.9578H33.5845C33.7148 11.9578 33.8306 11.9325 33.9319 11.8818C34.0333 11.8384 34.1129 11.7732 34.1709 11.6863C34.2288 11.6067 34.2577 11.5126 34.2577 11.404C34.2577 11.2158 34.1998 11.0746 34.084 10.9805C33.9681 10.8864 33.8234 10.8393 33.6496 10.8393H31.5755C31.4018 10.8393 31.257 10.89 31.1412 10.9913C31.0326 11.0927 30.9783 11.2266 30.9783 11.3931C30.9783 11.5596 31.0326 11.6936 31.1412 11.7949C31.257 11.9035 31.4018 11.9578 31.5755 11.9578ZM32.5637 7.93993C32.9184 7.93993 33.1863 7.86029 33.3673 7.70102C33.5555 7.53452 33.6496 7.29924 33.6496 6.99518C33.6496 6.69113 33.5555 6.45946 33.3673 6.3002C33.1863 6.13369 32.9184 6.05044 32.5637 6.05044C32.2162 6.05044 31.9484 6.13369 31.7601 6.3002C31.5791 6.45946 31.4886 6.69113 31.4886 6.99518C31.4886 7.19065 31.5285 7.36077 31.6081 7.50556C31.6877 7.65035 31.8072 7.75894 31.9665 7.83133C32.1257 7.90373 32.3248 7.93993 32.5637 7.93993Z" fill="#401A6D"/>
<path d="M26.4296 10.9261V5.2142H27.6784L27.7978 6.10465H27.8738C27.9462 5.91643 28.0403 5.7463 28.1562 5.59427C28.272 5.435 28.4168 5.30831 28.5905 5.2142C28.7643 5.12009 28.967 5.07303 29.1986 5.07303C29.3217 5.07303 29.4339 5.08751 29.5353 5.11647C29.6366 5.13819 29.7126 5.15991 29.7633 5.18162V6.54987H29.2964C29.072 6.54987 28.8729 6.58245 28.6991 6.64761C28.5326 6.70552 28.3914 6.79963 28.2756 6.92994C28.1598 7.06025 28.0729 7.21952 28.015 7.40774C27.9643 7.59597 27.939 7.81677 27.939 8.07015V10.9261H26.4296Z" fill="#401A6D"/>
<path d="M22.2049 11.0565C21.5244 11.0565 20.938 10.9479 20.4457 10.7307C19.9607 10.5135 19.5878 10.1878 19.3272 9.7534C19.0666 9.3118 18.9363 8.76522 18.9363 8.11368V3.47683H20.5652V8.07024C20.5652 8.60596 20.7063 9.0186 20.9887 9.30818C21.271 9.59052 21.6764 9.73168 22.2049 9.73168C22.7334 9.73168 23.1388 9.59052 23.4211 9.30818C23.7107 9.0186 23.8555 8.60596 23.8555 8.07024V3.47683H25.4843V8.11368C25.4843 8.76522 25.354 9.3118 25.0934 9.7534C24.8328 10.1878 24.4563 10.5135 23.9641 10.7307C23.479 10.9479 22.8926 11.0565 22.2049 11.0565Z" fill="#401A6D"/>
<path d="M0 8.01207C0 3.58713 3.58713 0 8.01207 0C12.437 0 16.0241 3.58713 16.0241 8.01207C16.0241 12.437 12.437 16.0241 8.01207 16.0241C3.58713 16.0241 0 12.437 0 8.01207Z" fill="#401A6D"/>
<path d="M2.72442 5.58814C6.27117 3.35088 9.69675 3.06455 11.9569 3.87992C13.0278 4.2663 13.8996 4.92839 14.3156 5.81602C15.1941 5.95215 16.0834 6.1816 16.9665 6.52291L16.4671 7.81511C15.8312 7.56936 15.1903 7.38843 14.5526 7.2639C14.4822 7.8557 14.2148 8.44897 13.7595 9.00341C12.2896 10.7933 9.89012 11.93 7.80313 12.361C6.75572 12.5774 5.7289 12.6287 4.88852 12.4619C4.07203 12.2998 3.24136 11.8831 2.96781 11.0025C2.82071 10.5289 2.91357 10.0541 3.10797 9.64356C3.30142 9.23506 3.61405 8.84598 3.99268 8.48935C4.75145 7.77468 5.86849 7.10288 7.19035 6.59502C8.68524 6.02069 10.4891 5.63848 12.4099 5.65976C12.1646 5.48052 11.8581 5.31708 11.4867 5.18309C9.71627 4.54436 6.73616 4.69552 3.46356 6.75985L2.72442 5.58814ZM7.68718 7.88821C6.4875 8.34913 5.53867 8.93633 4.94255 9.49781C4.64375 9.77925 4.45665 10.0325 4.36004 10.2365C4.10386 10.7775 4.69973 11.012 5.15825 11.103C5.75839 11.2221 6.58731 11.1975 7.5229 11.0043C9.40192 10.6162 11.4777 9.59904 12.6889 8.12416C14.5052 5.91253 8.60621 7.53513 7.68718 7.88821Z" fill="#F0EBF5"/>
</svg>
