<svg width="24" height="24" viewBox="0 0 24 24" fill="none" xmlns="http://www.w3.org/2000/svg">
<g clip-path="url(#clip0_2627_10265)">
<path d="M14.5419 19.1979C15.0164 18.7398 15.0297 17.9836 14.5715 17.5091C14.1133 17.0346 13.3572 17.0213 12.8827 17.4795C12.4081 17.9377 12.3949 18.6938 12.853 19.1683C13.3112 19.6429 14.0673 19.6561 14.5419 19.1979Z" fill="#59667C"/>
<path d="M14.8734 18.0639L12.6027 18.7858L10.5684 14.2146L13.3809 13.2002L14.8734 18.0639Z" fill="#59667C"/>
<path d="M18.4292 18.7913L17.8311 20.7938L13.3555 19.4794L14.0567 17.2632L18.4292 18.7913Z" fill="#59667C"/>
<path d="M19.4985 19.7832L18.9735 21.527C18.9495 21.6075 18.9098 21.6825 18.8566 21.7476C18.8035 21.8127 18.7381 21.8667 18.664 21.9065C18.5899 21.9462 18.5088 21.9709 18.4251 21.9791C18.3415 21.9874 18.257 21.979 18.1766 21.9545L18.1466 21.9451C18.0661 21.921 17.9911 21.8813 17.926 21.8282C17.8609 21.7751 17.8069 21.7096 17.7671 21.6356C17.7274 21.5615 17.7027 21.4803 17.6945 21.3967C17.6862 21.313 17.6946 21.2286 17.7191 21.1482L18.2441 19.4045C18.2682 19.3239 18.3079 19.2489 18.361 19.1838C18.4141 19.1187 18.4796 19.0647 18.5537 19.025C18.6277 18.9852 18.7089 18.9605 18.7925 18.9523C18.8762 18.9441 18.9606 18.9524 19.041 18.977L19.071 18.9863C19.4104 19.0876 19.6016 19.4438 19.4985 19.7832Z" fill="#4568AD"/>
<path d="M18.0996 21.9309L18.9944 18.9614L19.8435 19.2172L18.9488 22.1866L18.0996 21.9309Z" fill="#4568AD"/>
<path d="M18.1191 19.815L18.4285 18.7881L19.118 18.9958L18.8086 20.0228L18.1191 19.815Z" fill="#4568AD"/>
<path d="M10.291 18.4197C10.4626 17.7828 10.0853 17.1274 9.44841 16.9558C8.81148 16.7842 8.15606 17.1615 7.98449 17.7984C7.81291 18.4353 8.19016 19.0907 8.82709 19.2623C9.46403 19.4339 10.1194 19.0566 10.291 18.4197Z" fill="#818C9B"/>
<path d="M9.95297 18.9654L8.16797 17.3885L11.0423 13.2954L13.3598 15.1873L9.95297 18.9654Z" fill="#818C9B"/>
<path d="M7.59016 22.7378L5.76953 21.7084L8.08141 17.5459L10.0858 18.7234L7.59016 22.7378Z" fill="#818C9B"/>
<path d="M6.3786 23.5405L4.79423 22.6405C4.72122 22.599 4.65709 22.5436 4.60551 22.4773C4.55394 22.411 4.51592 22.3353 4.49363 22.2543C4.47134 22.1733 4.46523 22.0888 4.47562 22.0054C4.48602 21.9221 4.51273 21.8416 4.55423 21.7686L4.56923 21.7405C4.61071 21.6675 4.66617 21.6034 4.73244 21.5518C4.79871 21.5002 4.87449 21.4622 4.95545 21.4399C5.03642 21.4176 5.12098 21.4115 5.20431 21.4219C5.28763 21.4323 5.3681 21.459 5.4411 21.5005L7.02548 22.4005C7.09849 22.442 7.16262 22.4975 7.21419 22.5637C7.26577 22.63 7.30379 22.7058 7.32608 22.7867C7.34836 22.8677 7.35448 22.9523 7.34408 23.0356C7.33369 23.1189 7.30698 23.1994 7.26548 23.2724L7.25048 23.3005C7.16656 23.4478 7.02763 23.5558 6.86417 23.6008C6.70072 23.6458 6.52609 23.6241 6.3786 23.5405Z" fill="#4568AD"/>
<path d="M4.59658 21.6948L7.29245 23.2274L6.85408 23.9984L4.1582 22.4658L4.59658 21.6948Z" fill="#4568AD"/>
<path d="M6.6547 22.1841L7.58695 22.7141L7.23108 23.34L6.29883 22.81L6.6547 22.1841Z" fill="#4568AD"/>
<path d="M12.2034 15.7368C13.0287 15.7368 13.6977 15.0677 13.6977 14.2424C13.6977 13.4171 13.0287 12.748 12.2034 12.748C11.378 12.748 10.709 13.4171 10.709 14.2424C10.709 15.0677 11.378 15.7368 12.2034 15.7368Z" fill="#818C9B"/>
<path d="M8.7883 12.6928L7.70117 11.886L9.33355 9.68604L10.4207 10.4927L8.7883 12.6928Z" fill="#FBC11B"/>
<path d="M8.37433 12.9594C8.74606 12.8855 8.98749 12.5242 8.91357 12.1525C8.83966 11.7807 8.4784 11.5393 8.10667 11.6132C7.73494 11.6872 7.49351 12.0484 7.56743 12.4201C7.64134 12.7919 8.00261 13.0333 8.37433 12.9594Z" fill="#FBC11B"/>
<path d="M8.51367 10.2318L10.2424 11.4674L11.5212 9.67864C11.6806 9.45497 11.7449 9.17721 11.6999 8.90623C11.6549 8.63525 11.5043 8.39316 11.2812 8.23301L11.238 8.20301C11.0144 8.04356 10.7366 7.97928 10.4656 8.02427C10.1947 8.06926 9.95257 8.21984 9.79242 8.44301L8.51367 10.2318Z" fill="#04A287"/>
<path d="M6.03839 13.2006L5.90039 11.8539L8.20777 11.6177L8.34577 12.9643L6.03839 13.2006Z" fill="#FBC11B"/>
<path d="M4.42031 12.647L4.42406 12.6901C4.43509 12.8024 4.46815 12.9114 4.52133 13.0109C4.57452 13.1105 4.6468 13.1985 4.73404 13.2701C4.82128 13.3417 4.92177 13.3953 5.02977 13.428C5.13776 13.4608 5.25115 13.4719 5.36344 13.4607L5.84719 13.412C5.95949 13.4009 6.06851 13.3679 6.16803 13.3147C6.26755 13.2615 6.35561 13.1892 6.42718 13.102C6.49875 13.0148 6.55242 12.9143 6.58513 12.8063C6.61784 12.6983 6.62895 12.5849 6.61781 12.4726L6.61406 12.4295C6.60303 12.3172 6.56998 12.2081 6.51679 12.1086C6.4636 12.0091 6.39132 11.921 6.30408 11.8495C6.21684 11.7779 6.11635 11.7242 6.00836 11.6915C5.90036 11.6588 5.78698 11.6477 5.67469 11.6588L5.19094 11.7076C5.07858 11.7185 4.96948 11.7514 4.86989 11.8046C4.7703 11.8577 4.68218 11.93 4.61058 12.0173C4.53899 12.1046 4.48533 12.2051 4.45268 12.3132C4.42002 12.4212 4.40903 12.5347 4.42031 12.647ZM10.8347 5.7976L11.3203 7.7026L9.91219 8.24635L8.44219 4.63135L10.8347 5.7976Z" fill="#FBC11B"/>
<path d="M10.7249 3.86616L11.1055 7.12116L8.98302 7.38554C7.99677 7.50929 7.10802 6.78179 7.03302 5.78991L6.94302 4.58804C6.85864 3.47804 7.75302 2.53679 8.86489 2.56304L9.30739 2.57429C10.0368 2.59304 10.6405 3.14241 10.7249 3.86616Z" fill="#FBC11B"/>
<path d="M11.0609 6.06552L10.0484 6.00552L9.91526 5.31552C9.89343 5.20131 9.84086 5.09522 9.76322 5.00866C9.68558 4.9221 9.58581 4.85835 9.47463 4.82427L9.32838 5.61927C9.09401 5.60427 8.88213 5.46927 8.77151 5.26114L8.55213 4.84677C8.50521 4.7584 8.43784 4.68251 8.35566 4.62544C8.27347 4.56836 8.17883 4.53175 8.07964 4.51864L6.94338 4.37052C6.94338 4.37052 6.77276 2.83302 8.26901 2.46927C8.52776 2.40739 8.78463 2.36052 9.03213 2.32489C10.1834 2.16364 11.209 3.06364 11.2053 4.22614C11.2003 4.8419 11.1521 5.45654 11.0609 6.06552Z" fill="#6D4C41"/>
<path d="M7.81763 5.24791C7.83263 5.39229 7.74638 5.51979 7.62638 5.53104C7.50638 5.54229 7.39763 5.43541 7.38451 5.29103C7.36951 5.14666 7.45576 5.01916 7.57576 5.00791C7.69576 4.99478 7.80263 5.10354 7.81763 5.24791Z" fill="#C07B47"/>
<path d="M13.1322 14.0831L10.7997 14.6362C10.3535 14.7412 9.90722 14.4656 9.80035 14.0212L9.2266 9.71437C9.14972 9.01125 9.0916 7.81875 10.0235 7.59937L10.8297 7.40812C11.6322 7.21875 12.191 8.08687 12.4253 8.91375L13.7491 13.0837C13.7998 13.2981 13.7633 13.5237 13.6476 13.7112C13.5319 13.8986 13.3465 14.0324 13.1322 14.0831Z" fill="#00BEA4"/>
<path d="M14.9444 10.4858L14.2688 11.6592L11.8945 10.2923L12.5699 9.11914L14.9444 10.4858Z" fill="#FBC11B"/>
<path d="M14.8147 11.7293C15.1754 11.6129 15.3735 11.2262 15.2571 10.8655C15.1408 10.5048 14.754 10.3067 14.3933 10.4231C14.0326 10.5395 13.8346 10.9262 13.9509 11.2869C14.0673 11.6476 14.454 11.8457 14.8147 11.7293Z" fill="#FBC11B"/>
<path d="M12.5313 11.0437L13.5569 9.18368L11.6331 8.12055C11.3924 7.98821 11.1089 7.95672 10.845 8.03298C10.581 8.10925 10.3581 8.28706 10.225 8.52743L10.2006 8.57243C10.0683 8.8132 10.0368 9.09663 10.1131 9.36058C10.1893 9.62453 10.3671 9.84748 10.6075 9.98055L12.5313 11.0437Z" fill="#04A287"/>
<path d="M16.295 12.871L15.0915 13.4911L14.0293 11.4291L15.2329 10.8091L16.295 12.871Z" fill="#FBC11B"/>
<path d="M16.3694 14.5802L16.4069 14.5614C16.5074 14.51 16.5969 14.4393 16.67 14.3534C16.7432 14.2674 16.7987 14.1678 16.8334 14.0604C16.868 13.9529 16.8812 13.8397 16.872 13.7271C16.8629 13.6146 16.8316 13.505 16.78 13.4045L16.5588 12.9733C16.5074 12.8728 16.4367 12.7833 16.3507 12.7102C16.2647 12.637 16.1652 12.5815 16.0577 12.5468C15.9503 12.5122 15.837 12.499 15.7245 12.5082C15.612 12.5174 15.5023 12.5486 15.4019 12.6002L15.3644 12.6189C15.2639 12.6703 15.1745 12.741 15.1013 12.827C15.0281 12.913 14.9726 13.0125 14.9379 13.12C14.9033 13.2274 14.8902 13.3407 14.8993 13.4532C14.9085 13.5657 14.9397 13.6754 14.9913 13.7758L15.2125 14.207C15.3168 14.4096 15.4971 14.5626 15.7139 14.6326C15.9307 14.7025 16.1664 14.6837 16.3694 14.5802Z" fill="#FBC11B"/>
</g>
<defs>
<clipPath id="clip0_2627_10265">
<rect width="24" height="24" fill="white"/>
</clipPath>
</defs>
</svg>
